#!OML:ASF H:\Terrain\Patient Classification 1\Animal1\Tuesday\Animal1.ASF
:FULLY-SPECIFIED
:DEGREES
2204
root 6.6293 15.4652 -9.68495 -165.853 -174.061 -183.576
lowerback 18.3673 -4.34987 5.79105
upperback 2.03328 -4.05653 5.85749
thorax -8.0507 -2.04515 4.10266
lowerneck -2.32528 -10.909 -11.7177
upperneck -18.4817 -12.7099 20.5126
head -2.74388 -6.83901 8.33734
rclavicle -3.26007e-014 2.54444e-014
rhumerus -19.2421 22.2111 -89.9927
rradius 99.6842
rwrist 18.9002
rhand -7.6519 16.2983
rfingers 7.12502
rthumb 18.2438 -12.8661
lclavicle -3.26007e-014 2.54444e-014
lhumerus -26.84 -21.8013 106.319
lradius 92.3598
lwrist -59.9762
lhand 21.9639 43.4891
lfingers 7.12502
lthumb 46.36 66.4322
rfemur -43.6799 10.5791 9.48026
rtibia 42.8898
rfoot -5.36724 -16.8574
rtoes -28.6625
lfemur -47.686 -12.428 -11.1082
ltibia 57.185
lfoot -21.3758 4.33625
ltoes -8.45416
2205
root 6.62371 15.4811 -9.68016 -165.866 -174.156 -183.637
lowerback 18.5326 -4.32414 5.84236
upperback 2.12459 -4.00381 5.82785
thorax -8.04753 -2.02078 4.03607
lowerneck -2.17949 -10.8639 -11.741
upperneck -18.6823 -12.6056 20.8475
head -2.80862 -6.81682 8.47474
rclavicle -2.22639e-014 -6.04305e-014
rhumerus -19.019 22.2072 -90.0483
rradius 99.5802
rwrist 18.9113
rhand -7.86123 16.1525
rfingers 7.12502
rthumb 18.0424 -13.0307
lclavicle -2.22639e-014 -6.04305e-014
lhumerus -26.9085 -21.9021 106.119
lradius 92.5706
lwrist -59.8754
lhand 22.1862 43.2195
lfingers 7.12502
lthumb 46.566 66.0746
rfemur -43.4701 10.5544 9.60335
rtibia 42.6899
rfoot -4.92311 -16.9184
rtoes -28.91
lfemur -47.5822 -12.0613 -11.0157
ltibia 57.4178
lfoot -21.4562 5.00623
ltoes -8.98232
2206
root 6.62065 15.4918 -9.68079 -165.844 -174.409 -183.307
lowerback 18.6321 -4.34468 5.52689
upperback 2.15508 -4.09106 5.76416
thorax -8.0489 -2.05298 4.17084
lowerneck -2.09727 -10.8553 -11.5735
upperneck -18.8472 -12.5789 20.8573
head -2.88612 -6.82325 8.46909
rclavicle 6.79844e-014 -3.97569e-014
rhumerus -18.7096 22.2693 -90.0641
rradius 99.3685
rwrist 18.9692
rhand -7.90961 16.1754
rfingers 7.12502
rthumb 17.9958 -13.0121
lclavicle 6.79844e-014 -3.97569e-014
lhumerus -26.9004 -21.9233 106.027
lradius 92.6403
lwrist -59.7585
lhand 22.2466 43.2271
lfingers 7.12502
lthumb 46.622 66.0581
rfemur -43.3603 10.2314 9.31882
rtibia 42.5593
rfoot -4.66642 -16.9176
rtoes -29.4266
lfemur -47.6591 -11.8293 -11.3162
ltibia 57.687
lfoot -21.1334 6.60066
ltoes -12.8347
2207
root 6.62039 15.4997 -9.68275 -165.764 -174.714 -182.923
lowerback 18.625 -4.38628 5.13557
upperback 2.20782 -4.2312 5.73551
thorax -7.95706 -2.10878 4.38862
lowerneck -2.45659 -10.9004 -11.485
upperneck -18.5871 -12.6464 20.7613
head -2.75528 -6.83568 8.38029
rclavicle 3.02153e-014 -1.98785e-014
rhumerus -18.4498 22.4391 -89.9858
rradius 99.248
rwrist 19.0844
rhand -7.96708 16.3506
rfingers 7.12502
rthumb 17.9405 -12.8419
lclavicle 3.02153e-014 -1.98785e-014
lhumerus -26.6005 -21.7434 105.886
lradius 92.6032
lwrist -59.7859
lhand 22.6261 43.3365
lfingers 7.12502
lthumb 46.9731 66.0145
rfemur -43.3575 9.86756 8.94079
rtibia 42.476
rfoot -4.70061 -17.005
rtoes -29.4252
lfemur -47.7955 -11.5858 -11.5926
ltibia 58.0468
lfoot -20.9272 7.6441
ltoes -13.053
2208
root 6.62157 15.5075 -9.68084 -165.742 -175.074 -182.883
lowerback 18.6437 -4.43229 5.13264
upperback 2.30759 -4.2957 5.73994
thorax -7.85513 -2.13953 4.4056
lowerneck -2.89586 -10.9176 -11.4678
upperneck -18.2316 -12.6675 20.7781
head -2.57461 -6.82009 8.33052
rclavicle -2.3059e-014 3.18055e-014
rhumerus -18.2896 22.4993 -89.9097
rradius 99.2851
rwrist 19.0063
rhand -7.59697 16.313
rfingers 7.12502
rthumb 18.2966 -12.8465
lclavicle -2.3059e-014 3.18055e-014
lhumerus -26.279 -21.5227 105.846
lradius 92.4514
lwrist -59.8708
lhand 23.0655 43.411
lfingers 7.12502
lthumb 47.3793 65.9083
rfemur -43.2059 9.64461 8.94575
rtibia 42.3952
rfoot -4.93495 -17.1962
rtoes -28.9403
lfemur -47.8201 -11.2427 -11.4515
ltibia 58.483
lfoot -20.8083 8.17797
ltoes -9.54545
2209
root 6.62496 15.5166 -9.67789 -165.721 -175.53 -182.849
lowerback 18.6187 -4.47538 5.21363
upperback 2.35146 -4.33872 5.7501
thorax -7.79736 -2.16204 4.3768
lowerneck -2.90065 -10.8619 -11.5315
upperneck -18.2085 -12.5816 20.8711
head -2.56671 -6.77685 8.37384
rclavicle -6.12257e-014 3.10104e-014
rhumerus -18.2865 22.3672 -89.9146
rradius 99.2971
rwrist 18.8845
rhand -7.28357 16.4208
rfingers 7.12502
rthumb 18.5981 -12.7101
lclavicle -6.12257e-014 3.10104e-014
lhumerus -26.2104 -21.4926 106.014
lradius 92.2658
lwrist -59.7427
lhand 23.0664 43.771
lfingers 7.12502
lthumb 47.3802 66.2679
rfemur -42.9869 9.39265 8.96829
rtibia 42.2886
rfoot -4.62368 -17.4408
rtoes -29.711
lfemur -47.8685 -11.0791 -11.212
ltibia 58.9476
lfoot -20.7291 8.77693
ltoes -5.04543
2210
root 6.62878 15.5224 -9.67501 -165.599 -176.02 -182.887
lowerback 18.5037 -4.52524 5.32248
upperback 2.31824 -4.38199 5.84307
thorax -7.77069 -2.1848 4.42075
lowerneck -2.97724 -10.7671 -11.7583
upperneck -17.9904 -12.4592 20.9418
head -2.48643 -6.69486 8.42247
rclavicle -4.92986e-014 1.27222e-014
rhumerus -18.3239 22.2429 -89.9894
rradius 99.0585
rwrist 18.9251
rhand -7.60185 16.7313
rfingers 7.12502
rthumb 18.2919 -12.4286
lclavicle -4.92986e-014 1.27222e-014
lhumerus -26.2894 -21.5114 106.107
lradius 92.0794
lwrist -59.3765
lhand 22.0603 43.8515
lfingers 7.12502
lthumb 46.4493 66.7566
rfemur -42.8607 9.20211 9.03152
rtibia 42.1746
rfoot -4.66507 -17.7533
rtoes -29.4284
lfemur -48.0847 -10.9062 -10.8205
ltibia 59.4417
lfoot -20.9196 9.33701
ltoes -2.87216
2211
root 6.63205 15.528 -9.67407 -165.514 -176.468 -182.901
lowerback 18.4997 -4.57221 5.36404
upperback 2.27505 -4.42804 5.87822
thorax -7.81483 -2.20696 4.45084
lowerneck -3.17135 -10.6702 -11.6404
upperneck -17.7521 -12.3435 20.7852
head -2.42665 -6.61956 8.33659
rclavicle 8.90555e-014 -3.89618e-014
rhumerus -18.3225 22.1976 -90.151
rradius 98.7386
rwrist 19.0882
rhand -7.83453 16.2665
rfingers 7.12502
rthumb 18.0681 -12.9143
lclavicle 8.90555e-014 -3.89618e-014
lhumerus -26.3817 -21.3577 105.941
lradius 92.1023
lwrist -59.237
lhand 21.1808 43.8164
lfingers 7.12502
lthumb 45.6334 67.062
rfemur -42.7388 9.0762 9.04525
rtibia 42.0882
rfoot -5.63043 -17.9489
rtoes -26.8652
lfemur -48.2781 -10.6725 -10.4466
ltibia 59.9404
lfoot -20.5656 9.91784
ltoes -2.38048
2212
root 6.64101 15.535 -9.66999 -165.632 -176.784 -182.689
lowerback 18.728 -4.59303 5.23043
upperback 2.27135 -4.46917 5.73908
thorax -7.94291 -2.22234 4.40527
lowerneck -3.04168 -10.4597 -11.1288
upperneck -17.9244 -12.0749 20.375
head -2.61529 -6.50357 8.16381
rclavicle 2.5842e-014 0
rhumerus -18.2988 22.1196 -90.3821
rradius 98.5259
rwrist 19.1765
rhand -7.80668 15.5446
rfingers 7.12502
rthumb 18.0948 -13.6337
lclavicle 2.5842e-014 0
lhumerus -26.4834 -21.1231 105.751
lradius 92.2193
lwrist -59.3372
lhand 21.4244 44.0005
lfingers 7.12502
lthumb 45.8596 67.1532
rfemur -42.45 8.84406 8.86142
rtibia 42.0156
rfoot -6.00617 -18.0497
rtoes -25.954
lfemur -48.1307 -10.5417 -10.3588
ltibia 60.4522
lfoot -19.8958 10.5471
ltoes -2.59574
2213
root 6.65714 15.5386 -9.66133 -165.746 -177.165 -182.616
lowerback 18.8798 -4.64992 5.31902
upperback 2.27011 -4.51674 5.63986
thorax -8.04045 -2.24714 4.27416
lowerneck -2.98214 -10.0733 -10.7181
upperneck -17.9222 -11.5847 19.8633
head -2.77416 -6.25653 7.97253
rclavicle -2.38542e-014 2.46493e-014
rhumerus -18.2051 21.9816 -90.6176
rradius 98.2599
rwrist 19.0835
rhand -8.12439 15.7579
rfingers 7.12502
rthumb 17.7891 -13.4484
lclavicle -2.38542e-014 2.46493e-014
lhumerus -26.5858 -20.8215 105.767
lradius 92.1006
lwrist -58.9762
lhand 21.8744 44.2583
lfingers 7.12502
lthumb 46.277 67.2366
rfemur -42.1101 8.50253 8.85588
rtibia 41.9264
rfoot -5.47305 -18.1864
rtoes -27.006
lfemur -47.9556 -10.3916 -10.0877
ltibia 61.0317
lfoot -19.7441 10.9903
ltoes -3.00902
